# xmcd CD database file
#
# Track frame offsets:
#	150
#	15436
#	28851
#	41747
#	56702
#	67063
#	79446
#	90738
#	100521
#	118605
#
# Disc length: 1734 seconds
#
# Revision: 0
# Processed by: cddbd v1.5.2PL0 Copyright (c) Steve Scherf et al.
# Submitted via: CDex 1.51
#
DISCID=8106c40a
DTITLE=McMinnville Records - Crazy - A Tribute to Patsy Cline
DYEAR=1900
DGENRE=Country
TTITLE0=Crazy
TTITLE1=She's Got You
TTITLE2=I Fall to Pieces
TTITLE3=So Wrong
TTITLE4=Have You Ever Been Lonely?
TTITLE5=Walkin' After Midnight
TTITLE6=Leavin' on Your Mind
TTITLE7=Three Cigarettes in an Ashtray
TTITLE8=Faded Love
TTITLE9=Sweet Dreams
EXTD=
EXTT0=
EXTT1=
EXTT2=
EXTT3=
EXTT4=
EXTT5=
EXTT6=
EXTT7=
EXTT8=
EXTT9=
PLAYORDER=
